<?xml version="1.0" encoding="utf-8"?>
<!-- Generator: Adobe Illustrator 25.4.1, SVG Export Plug-In . SVG Version: 6.00 Build 0)  -->
<svg version="1.1" id="Layer_1" xmlns="http://www.w3.org/2000/svg" xmlns:xlink="http://www.w3.org/1999/xlink" x="0px" y="0px"
	 viewBox="200 200 400 400" style="enable-background:new 0 0 800 800;" xml:space="preserve">
<style type="text/css">
	.st0{fill:#1AA3E8;}
	.st1{fill:#FFFFFF;}
</style>
<defs>
	<clipPath id="circleClip">
		<circle cx="400" cy="400" r="400" />
	</clipPath>
</defs>
<rect x="0" width="800" height="800"/>
<g>
	<g>
		<g>
			<path class="st0" d="M400,226.53c-95.65,0-173.46,77.82-173.46,173.46c0,11.37,1.1,22.5,3.2,33.28h1.32
				c-2.11-10.77-3.22-21.89-3.22-33.28c0-94.93,77.23-172.17,172.17-172.17s172.17,77.24,172.17,172.17
				c0,11.38-1.11,22.51-3.22,33.28h1.32c2.1-10.78,3.2-21.9,3.2-33.28C573.46,304.35,495.65,226.53,400,226.53z M400,572.18
				c-62.49,0-117.3-33.46-147.47-83.4h-1.5c30.3,50.69,85.74,84.69,148.96,84.69s118.67-34,148.96-84.69h-1.5
				C517.3,538.72,462.49,572.18,400,572.18z"/>
		</g>
		<g>
			<path class="st0" d="M400,231.83c-92.73,0-168.17,75.44-168.17,168.16c0,11.38,1.13,22.52,3.31,33.28h3.93
				c-2.22-10.75-3.38-21.88-3.38-33.28c0-90.6,73.71-164.29,164.31-164.29s164.31,73.7,164.31,164.29c0,11.4-1.16,22.52-3.38,33.28
				h3.93c2.18-10.75,3.31-21.89,3.31-33.28C568.17,307.27,492.73,231.83,400,231.83z M400,564.3c-57.91,0-108.93-30.12-138.21-75.53
				h-4.56c29.72,47.64,82.62,79.39,142.78,79.39s113.06-31.76,142.78-79.39h-4.56C508.93,534.18,457.91,564.3,400,564.3z"/>
		</g>
		<g>
			<g>
				<path class="st0" d="M510.6,358.25C510.6,358.25,510.6,358.25,510.6,358.25c-3.21-1.23-6.35-2.59-9.28-4.42c0,0,0,0,0,0
					c-3.59-1.63-7.17-3.27-10.77-4.87c-1.23-0.55-1.38-1.31-0.56-2.29c0.61-0.74,0.87-1.8,1.93-2.14
					c4.09-6.73,8.7-13.09,13.43-19.38l0,0c0,0,0,0,0,0c0,0,0,0,0,0c0,0,0,0,0,0c1.29-1.09,1.94,0.3,2.67,0.81
					c6.01,4.14,12,8.31,17.91,12.58c3.33,2.4,6.94,4.44,9.92,7.32c0,0,0-0.01,0.01-0.01c1.68,0.74,2.81,2.02,3.57,3.66
					c2.03,2.81,2.18,5.83,1,8.99c-0.98,3.96-3.73,6.16-7.43,7.32c-4.98,1.56-9.07-0.75-13.13-3.14c0,0,0,0,0,0
					C516.67,361.43,513.53,360.05,510.6,358.25z"/>
				<path class="st0" d="M431.07,289.92c3.87,0.44,16.76,8.79,25.11,15.91l0,0c0.38,0.54,0.77,1.08,1.15,1.62
					c3.28-3.47,7.56-4.12,12.39-1.83c3.05,1.45,5.73,3.52,8.58,5.29c1.88,1.17,2.47,2.39,1.12,4.27c-0.04,0.54-0.14,1.06-0.27,1.55
					c0.34-0.34,0.72-0.65,1.17-0.93c0.97-1.72,2.39-2.05,4.37-2.22c5.49-0.47,9.35,2.39,13.16,5.59c0,0,0,0,0,0
					c4.82,2.95,4.82,2.95,1.62,7.6c-0.05,0.08-0.14,0.13-0.22,0.2c-2.03,4.22-4.48,8.2-7.08,12.09c-0.78,2.37-2.46,4.25-3.54,6.45
					c-0.66,1.34-1.44,1.37-2.54,0.51c-1.86-1.45-3.78-2.82-5.67-4.22c0,0,0,0,0,0c-3.1-2.1-6.93-3.48-7.78-7.82
					c-0.94-3.38-3.05-5.78-6.04-7.57c-1.24-0.74-2.25-1.86-3.37-2.8c0,0,0,0,0,0c-5.07-3.63-9.12-7.75-7.17-14.8
					c0.06-0.22-0.23-0.53-0.35-0.8C447.3,302.25,438.23,297.36,431.07,289.92z"/>
				<path class="st0" d="M489.19,370.42c0.72,3.33,1.41,6.65,0.87,10.05c2.71,1.27,5.4,2.62,8.07,4.07c0.37-0.81,0.71-1.64,0.98-2.5
					c0.55-0.63,0.96-1.26,0.6-1.9c0.05-0.09,0.1-0.17,0.13-0.26c0.08,1.09,0.2,2.18,0.1,3.26c-0.04,0.75-0.22,1.47-0.46,2.16
					c0.83,0.46,1.66,0.91,2.48,1.39c1.18,0.91,2.37,1.83,3.55,2.74c1.29-3.58,2.41-7.2,3.24-10.92c1.81-4.51,3.31-9.17,6.23-13.16
					c1.3-1.09,0.72-1.91-0.45-2.48c-4.63-2.27-9.29-4.49-13.94-6.75c-1.53-0.74-2.42,0.01-3.17,1.25c-0.44,0.73-1.08,1.26-1.97,0.81
					c-0.74-0.37-0.78-1.12-0.58-1.82c0.65-2.22-0.52-3.26-2.39-4.05c-1.97-0.82-3.87-1.84-6.33-3.03c1.44,4.57,0.51,8.31-1.43,11.91
					c-0.85,1.58-0.55,3.05,0.68,4.37C486.81,367.06,488.23,368.57,489.19,370.42z"/>
			</g>
			<g>
				<path class="st0" d="M289.4,358.25C289.4,358.25,289.4,358.25,289.4,358.25c3.21-1.23,6.35-2.59,9.28-4.42c0,0,0,0,0,0
					c3.59-1.63,7.17-3.27,10.77-4.87c1.23-0.55,1.38-1.31,0.56-2.29c-0.61-0.74-0.87-1.8-1.93-2.14
					c-4.09-6.73-8.7-13.09-13.43-19.38l0,0c0,0,0,0,0,0c0,0,0,0,0,0c0,0,0,0,0,0c-1.29-1.09-1.94,0.3-2.67,0.81
					c-6.01,4.14-12,8.31-17.91,12.58c-3.33,2.4-6.94,4.44-9.92,7.32c0,0,0-0.01-0.01-0.01c-1.68,0.74-2.81,2.02-3.57,3.66
					c-2.03,2.81-2.18,5.83-1,8.99c0.98,3.96,3.73,6.16,7.43,7.32c4.98,1.56,9.07-0.75,13.13-3.14c0,0,0,0,0,0
					C283.33,361.43,286.47,360.05,289.4,358.25z"/>
				<path class="st0" d="M368.93,289.92c-3.87,0.44-16.76,8.79-25.11,15.91l0,0c-0.38,0.54-0.77,1.08-1.15,1.62
					c-3.28-3.47-7.56-4.12-12.39-1.83c-3.05,1.45-5.73,3.52-8.58,5.29c-1.88,1.17-2.47,2.39-1.12,4.27
					c0.04,0.54,0.14,1.06,0.27,1.55c-0.34-0.34-0.72-0.65-1.17-0.93c-0.97-1.72-2.39-2.05-4.37-2.22
					c-5.49-0.47-9.35,2.39-13.16,5.59c0,0,0,0,0,0c-4.82,2.95-4.82,2.95-1.62,7.6c0.05,0.08,0.14,0.13,0.22,0.2
					c2.03,4.22,4.48,8.2,7.08,12.09c0.78,2.37,2.46,4.25,3.54,6.45c0.66,1.34,1.44,1.37,2.54,0.51c1.86-1.45,3.78-2.82,5.67-4.22
					c0,0,0,0,0,0c3.1-2.1,6.93-3.48,7.78-7.82c0.94-3.38,3.05-5.78,6.04-7.57c1.24-0.74,2.25-1.86,3.37-2.8c0,0,0,0,0,0
					c5.07-3.63,9.12-7.75,7.17-14.8c-0.06-0.22,0.23-0.53,0.35-0.8C352.7,302.25,361.77,297.36,368.93,289.92z"/>
				<path class="st0" d="M285.01,365.35c2.92,3.99,4.42,8.65,6.23,13.16c0.8,3.56,1.87,7.04,3.09,10.47
					c2.04-1.24,4.12-2.41,6.24-3.51c-0.26-0.75-0.47-1.52-0.51-2.33c-0.1-1.09,0.02-2.17,0.1-3.26c0.04,0.09,0.08,0.18,0.13,0.26
					c-0.36,0.64,0.05,1.27,0.6,1.9c0.3,0.94,0.68,1.84,1.08,2.72c2.64-1.32,5.33-2.54,8.09-3.65c-0.75-3.61-0.03-7.15,0.74-10.68
					c0.96-1.85,2.38-3.36,3.78-4.87c1.23-1.32,1.53-2.79,0.68-4.37c-1.94-3.6-2.87-7.34-1.43-11.91c-2.47,1.19-4.36,2.21-6.34,3.03
					c-1.88,0.78-3.04,1.83-2.39,4.05c0.21,0.71,0.16,1.46-0.58,1.82c-0.89,0.45-1.53-0.08-1.97-0.81c-0.75-1.23-1.64-1.99-3.17-1.25
					c-4.64,2.25-9.3,4.47-13.94,6.75C284.3,363.44,283.72,364.26,285.01,365.35z"/>
			</g>
		</g>
		<g id="XMLID_6_">
			<rect id="XMLID_10_" x="382.6" y="367.17" class="st0" width="15.13" height="15.13"/>
			<rect id="XMLID_9_" x="402.26" y="367.17" class="st0" width="15.13" height="15.13"/>
			<rect id="XMLID_8_" x="382.6" y="386.83" class="st0" width="15.13" height="15.13"/>
			<rect id="XMLID_7_" x="402.26" y="386.83" class="st0" width="15.13" height="15.13"/>
		</g>
		<path class="st0" d="M246.37,416.26c42.8-28.22,87.35-54.37,131.88-79.8c1.44-0.83,21.07-11.87,21.76-12.27
			c0.64,0.34,20.37,11.49,21.76,12.26c44.54,25.42,89.08,51.56,131.87,79.81c-53-24.82-105.07-52.89-156.22-81.36c0,0,5.17,0,5.17,0
			C351.42,363.35,299.37,391.41,246.37,416.26L246.37,416.26z"/>
		<g>
			<path class="st0" d="M609.96,492.21H190.04c-17.2,0-31.19-13.99-31.19-31.19c0-17.2,13.99-31.19,31.19-31.19h419.92
				c17.2,0,31.19,13.99,31.19,31.19C641.15,478.22,627.16,492.21,609.96,492.21z M190.04,433.9c-14.96,0-27.13,12.17-27.13,27.12
				s12.17,27.13,27.13,27.13h419.92c14.96,0,27.13-12.17,27.13-27.13s-12.17-27.12-27.13-27.12H190.04z"/>
		</g>
		<g>
			<g>
				<path class="st0" d="M197.91,451.54v3.11l-5.04,0.25v-2.82c0-2.77-1.04-4-2.96-4c-1.93,0-2.96,1.24-2.96,3.51v18.87
					c0,2.27,1.04,3.51,2.96,3.51c1.93,0,2.96-1.24,2.96-4v-3.85l5.04,0.25v4.15c0,5.24-3.01,8.3-8.15,8.3
					c-5.09,0-8.05-3.06-8.05-8.3v-18.97c0-5.24,2.96-8.3,8.05-8.3C194.9,443.24,197.91,446.3,197.91,451.54z"/>
				<path class="st0" d="M202.36,478.32v-34.58h5.24v34.58H202.36z"/>
				<path class="st0" d="M221.73,448.67v29.64h-5.24v-29.64h-5.58v-4.94h16.4v4.94H221.73z"/>
				<path class="st0" d="M239.91,478.32h-5.24v-15.66l-7.26-18.92h5.53l4.4,12.25h0.1l4.2-12.25h5.43l-7.16,18.97V478.32z"/>
				<path class="st0" d="M263.32,473.38v4.94h-13.98v-34.58h5.24v29.64H263.32z"/>
				<path class="st0" d="M266.68,478.32v-34.58h5.24v34.58H266.68z"/>
				<path class="st0" d="M289.46,478.32l-6.87-22.92h-0.1v22.92h-4.94v-34.58h5.83l6.18,20.6h0.1v-20.6h4.94v34.58H289.46z"/>
				<path class="st0" d="M305.47,448.58v9.78h7.66v4.84h-7.66v10.28h9.49v4.84h-14.72v-34.58h14.72v4.84H305.47z"/>
				<path class="st0" d="M345.73,478.32v-24.01h-0.1l-4.35,19.07h-3.11l-4.35-19.07h-0.1v24.01h-4.94v-34.58h6.87l4.1,18.58h0.1
					l4.05-18.58h7.06v34.58H345.73z"/>
				<path class="st0" d="M368.01,478.32l-1.14-7.86h-5.78l-1.14,7.86h-5.24l5.98-34.58h6.67l5.98,34.58H368.01z M361.79,465.72h4.4
					l-2.12-14.57h-0.15L361.79,465.72z"/>
				<path class="st0" d="M377.1,478.32v-34.58h5.24v34.58H377.1z"/>
				<path class="st0" d="M399.88,478.32l-6.87-22.92h-0.1v22.92h-4.94v-34.58h5.83l6.18,20.6h0.1v-20.6h4.94v34.58H399.88z"/>
				<path class="st0" d="M419.15,448.67v29.64h-5.24v-29.64h-5.58v-4.94h16.4v4.94H419.15z"/>
				<path class="st0" d="M433.28,448.58v9.78h7.66v4.84h-7.66v10.28h9.49v4.84h-14.72v-34.58h14.72v4.84H433.28z"/>
				<path class="st0" d="M459.11,478.32l-6.87-22.92h-0.1v22.92h-4.94v-34.58h5.83l6.18,20.6h0.1v-20.6h4.94v34.58H459.11z"/>
				<path class="st0" d="M481.3,478.32l-1.14-7.86h-5.78l-1.14,7.86h-5.24l5.98-34.58h6.67l5.98,34.58H481.3z M475.07,465.72h4.4
					l-2.12-14.57h-0.15L475.07,465.72z"/>
				<path class="st0" d="M502.29,478.32l-6.87-22.92h-0.1v22.92h-4.94v-34.58h5.83l6.18,20.6h0.1v-20.6h4.94v34.58H502.29z"/>
				<path class="st0" d="M528.73,451.54v3.11l-5.04,0.25v-2.82c0-2.77-1.04-4-2.97-4c-1.93,0-2.96,1.24-2.96,3.51v18.87
					c0,2.27,1.04,3.51,2.96,3.51c1.93,0,2.97-1.24,2.97-4v-3.85l5.04,0.25v4.15c0,5.24-3.01,8.3-8.15,8.3
					c-5.09,0-8.05-3.06-8.05-8.3v-18.97c0-5.24,2.97-8.3,8.05-8.3C525.71,443.24,528.73,446.3,528.73,451.54z"/>
				<path class="st0" d="M538.41,448.58v9.78h7.66v4.84h-7.66v10.28h9.49v4.84h-14.72v-34.58h14.72v4.84H538.41z"/>
				<path class="st0" d="M575.71,473.38v4.94h-13.98v-34.58h5.24v29.64H575.71z"/>
				<path class="st0" d="M584.9,448.67v29.64h-5.24v-29.64h-5.58v-4.94h16.4v4.94H584.9z"/>
				<path class="st0" d="M601.3,443.73c5.63,0,8.69,3.06,8.69,8.74v17.09c0,5.68-3.06,8.74-8.69,8.74h-7.51v-34.58H601.3z
					 M599.03,473.47h2.07c2.52,0,3.66-1.33,3.66-4.25v-16.4c0-2.91-1.14-4.25-3.66-4.25h-2.07V473.47z"/>
			</g>
			<circle class="st0" cx="615.87" cy="475.9" r="2.42"/>
		</g>
	</g>
	<g>
		<polygon class="st0" points="400,505.19 405.35,516.04 417.33,517.78 408.66,526.22 410.71,538.15 400,532.52 389.29,538.15 
			391.34,526.22 382.67,517.78 394.65,516.04 		"/>
		<g>
			<polygon class="st0" points="435.57,510.41 439.22,517.82 447.4,519.01 441.48,524.78 442.88,532.92 435.57,529.08 
				428.25,532.92 429.65,524.78 423.73,519.01 431.91,517.82 			"/>
			<polygon class="st0" points="364.43,510.41 368.09,517.82 376.27,519.01 370.35,524.78 371.75,532.92 364.43,529.08 
				357.12,532.92 358.52,524.78 352.6,519.01 360.78,517.82 			"/>
		</g>
	</g>
</g>
</svg>
